<?xml version="1.0" encoding="UTF-8" standalone="no"?>
<!-- Created with Inkscape (http://www.inkscape.org/) -->

<svg
   width="192"
   height="48"
   viewBox="0 0 192 48"
   version="1.1"
   id="SVGRoot"
   sodipodi:docname="logo_with_text.svg"
   inkscape:version="1.2 (dc2aedaf03, 2022-05-15)"
   inkscape:export-filename="logo_with_text_512.png"
   inkscape:export-xdpi="256"
   inkscape:export-ydpi="256"
   xmlns:inkscape="http://www.inkscape.org/namespaces/inkscape"
   xmlns:sodipodi="http://sodipodi.sourceforge.net/DTD/sodipodi-0.dtd"
   xmlns:xlink="http://www.w3.org/1999/xlink"
   xmlns="http://www.w3.org/2000/svg"
   xmlns:svg="http://www.w3.org/2000/svg">
  <sodipodi:namedview
     id="namedview137"
     pagecolor="#858585"
     bordercolor="#666666"
     borderopacity="1.0"
     inkscape:showpageshadow="2"
     inkscape:pageopacity="0"
     inkscape:pagecheckerboard="true"
     inkscape:deskcolor="#d1d1d1"
     inkscape:document-units="px"
     showgrid="false"
     inkscape:zoom="7.319248"
     inkscape:cx="97.482692"
     inkscape:cy="3.1423993"
     inkscape:window-width="2560"
     inkscape:window-height="1369"
     inkscape:window-x="-8"
     inkscape:window-y="-8"
     inkscape:window-maximized="1"
     inkscape:current-layer="layer1"
     showguides="false">
    <inkscape:grid
       type="xygrid"
       id="grid260"
       originx="0"
       originy="0" />
  </sodipodi:namedview>
  <defs
     id="defs132">
    <inkscape:path-effect
       effect="mirror_symmetry"
       start_point="24,0"
       end_point="24,38"
       center_point="24,19"
       id="path-effect9706"
       is_visible="true"
       lpeversion="1.2"
       lpesatellites=""
       mode="free"
       discard_orig_path="false"
       fuse_paths="false"
       oposite_fuse="false"
       split_items="false"
       split_open="false"
       link_styles="false" />
    <inkscape:path-effect
       effect="mirror_symmetry"
       start_point="24,0"
       end_point="24,48"
       center_point="24,24"
       id="path-effect5360"
       is_visible="true"
       lpeversion="1.2"
       lpesatellites=""
       mode="free"
       discard_orig_path="false"
       fuse_paths="false"
       oposite_fuse="false"
       split_items="false"
       split_open="false"
       link_styles="false" />
    <linearGradient
       id="linearGradient2859">
      <stop
         style="stop-color:#ffffff;stop-opacity:1;"
         offset="0"
         id="stop2867" />
      <stop
         style="stop-color:#f1f1e8;stop-opacity:0.58447486;"
         offset="0.2005765"
         id="stop2872" />
      <stop
         style="stop-color:#f8f8f3;stop-opacity:0;"
         offset="0.74718851"
         id="stop15506" />
      <stop
         style="stop-color:#ffffff;stop-opacity:0;"
         offset="1"
         id="stop2869" />
    </linearGradient>
    <linearGradient
       inkscape:collect="always"
       xlink:href="#linearGradient2859"
       id="linearGradient2861"
       x1="3"
       y1="39"
       x2="45"
       y2="39"
       gradientUnits="userSpaceOnUse"
       gradientTransform="matrix(0.11904762,0,0,7,36.142857,-297)" />
    <filter
       id="mask-powermask-path-effect9800_inverse"
       inkscape:label="filtermask-powermask-path-effect9800"
       style="color-interpolation-filters:sRGB"
       height="100"
       width="100"
       x="-50"
       y="-50">
      <feColorMatrix
         id="mask-powermask-path-effect9800_primitive1"
         values="1"
         type="saturate"
         result="fbSourceGraphic" />
      <feColorMatrix
         id="mask-powermask-path-effect9800_primitive2"
         values="-1 0 0 0 1 0 -1 0 0 1 0 0 -1 0 1 0 0 0 1 0 "
         in="fbSourceGraphic" />
    </filter>
    <clipPath
       clipPathUnits="userSpaceOnUse"
       id="clipPath14710">
      <rect
         style="fill:none;fill-opacity:1;stroke:#f1f1e8;stroke-width:1.71035;stroke-linecap:butt;stroke-miterlimit:3;stroke-dasharray:none;stroke-opacity:0.996078"
         id="rect14712"
         width="21.10331"
         height="14.408632"
         x="13.562843"
         y="21.692093" />
    </clipPath>
  </defs>
  <g
     inkscape:label="Layer 1"
     inkscape:groupmode="layer"
     id="layer1">
    <text
       xml:space="preserve"
       style="font-style:normal;font-variant:normal;font-weight:bold;font-stretch:normal;font-size:32px;line-height:1.25;font-family:Comfortaa;-inkscape-font-specification:'Comfortaa Bold';letter-spacing:-1px;fill:#f1f1e8;fill-opacity:1;stroke:#f1f1e8;stroke-width:1.5;stroke-dasharray:none;stroke-opacity:0.996078"
       x="51.567402"
       y="36.416"
       id="text10874-1"
       inkscape:transform-center-x="25.69805"
       inkscape:transform-center-y="2.8982763"><tspan
         sodipodi:role="line"
         id="tspan10872-4"
         x="51.567402"
         y="36.416">Adahide</tspan></text>
    <text
       xml:space="preserve"
       style="font-style:normal;font-variant:normal;font-weight:bold;font-stretch:normal;font-size:32px;line-height:1.25;font-family:Comfortaa;-inkscape-font-specification:'Comfortaa Bold';letter-spacing:-1px;word-spacing:0px;fill:#000000;fill-opacity:1;stroke:none;stroke-opacity:0.996479"
       x="51.499584"
       y="36.416"
       id="text10874"><tspan
         sodipodi:role="line"
         id="tspan10872"
         x="51.499584"
         y="36.416"
         dx="0">Adahide</tspan></text>
    <g
       id="g14704"
       clip-path="url(#clipPath14710)">
      <ellipse
         style="fill:#f1f1e8;fill-opacity:1;stroke:#000000;stroke-width:1;stroke-linecap:butt;stroke-miterlimit:3;stroke-dasharray:none;stroke-opacity:1"
         id="path2926-2"
         ry="7.771132"
         rx="5.1672993"
         cy="31.328255"
         cx="28.211874" />
      <ellipse
         style="fill:#f1f1e8;fill-opacity:1;stroke:#000000;stroke-width:1;stroke-linecap:butt;stroke-miterlimit:3;stroke-dasharray:none;stroke-opacity:1"
         id="path2926"
         cx="20.249207"
         cy="31.277992"
         rx="5.1672993"
         ry="7.771132" />
    </g>
    <circle
       style="fill:#000000;fill-opacity:1;stroke:none;stroke-width:1.65201;stroke-linecap:butt;stroke-miterlimit:3;stroke-dasharray:none;stroke-opacity:1"
       id="path3004"
       cx="21"
       cy="33"
       r="2" />
    <circle
       style="fill:#000000;fill-opacity:1;stroke:none;stroke-width:1.652;stroke-linecap:butt;stroke-miterlimit:3;stroke-dasharray:none;stroke-opacity:1"
       id="path3004-2"
       cx="29"
       cy="33"
       r="2" />
    <ellipse
       style="fill:#f1f1e8;fill-opacity:1;stroke:none;stroke-width:2.05127;stroke-linecap:butt;stroke-miterlimit:3;stroke-dasharray:none;stroke-opacity:1"
       id="path3236"
       cx="20.520555"
       cy="32.258583"
       rx="0.41918021"
       ry="0.42027175" />
    <ellipse
       style="fill:#f1f1e8;fill-opacity:1;stroke:none;stroke-width:2.05127;stroke-linecap:butt;stroke-miterlimit:3;stroke-dasharray:none;stroke-opacity:1"
       id="path3236-4"
       cx="28.672157"
       cy="32.139847"
       rx="0.41918021"
       ry="0.42027175" />
    <path
       style="fill:#000000;fill-opacity:1;stroke:#000000;stroke-width:1.00157;stroke-linecap:butt;stroke-linejoin:miter;stroke-miterlimit:3;stroke-dasharray:none;stroke-opacity:1"
       d="m 3,36 c 6.283047,0 37.950403,0 42,0"
       id="path380"
       sodipodi:nodetypes="cc" />
    <rect
       style="fill:url(#linearGradient2861);fill-opacity:1;stroke:none;stroke-width:0.914303;stroke-linecap:butt;stroke-miterlimit:3;stroke-dasharray:none;stroke-opacity:1"
       id="rect2778"
       width="5"
       height="42"
       x="36.5"
       y="-45"
       transform="rotate(90)" />
    <path
       id="path5414"
       style="fill:#206a5d;fill-opacity:1;stroke:#f1f1e8;stroke-width:0.402;stroke-linecap:butt;stroke-miterlimit:3;stroke-dasharray:none;stroke-opacity:0.99607843"
       d="m 14.699219,5.8789062 c -0.520566,2.939e-4 -0.942192,0.4227942 -0.941407,0.9433594 2.94e-4,0.5198026 0.421604,0.9411123 0.941407,0.9414063 0.519802,-2.945e-4 0.941112,-0.421604 0.941406,-0.9414063 7.85e-4,-0.5205648 -0.420841,-0.943065 -0.941406,-0.9433594 z m 1.720703,3.6679688 c -1.014043,-2.006e-4 -1.836138,0.821894 -1.835938,1.835937 -2.01e-4,1.014044 0.821894,1.836139 1.835938,1.835938 1.014043,2e-4 1.836138,-0.821895 1.835937,-1.835938 2e-4,-1.014043 -0.821894,-1.836137 -1.835937,-1.835937 z m 2.472656,4.958984 c -1.995128,2.8e-4 -3.612127,1.618154 -3.611328,3.613282 2.8e-4,1.994365 1.616963,3.611048 3.611328,3.611328 1.995128,7.98e-4 3.613001,-1.6162 3.613281,-3.611328 7.99e-4,-1.995891 -1.61739,-3.614081 -3.613281,-3.613282 z m -7.005859,1.63086 c -1.10457,0 -2.0000002,0.89543 -2.0000002,2 0,1.10457 0.8954302,2 2.0000002,2 1.104569,0 2,-0.895431 2,-2 0,-1.104569 -0.895431,-2 -2,-2 z M 1.2988281,18.628906 c -0.51980223,2.94e-4 -0.94111171,0.421604 -0.94140622,0.941406 -7.8494e-4,0.520565 0.42084057,0.943066 0.94140622,0.94336 0.5213286,7.86e-4 0.944146,-0.422031 0.9433594,-0.94336 -2.944e-4,-0.520565 -0.4227946,-0.942191 -0.9433594,-0.941406 z m 3.4648438,0.923828 c -1.0132806,8.78e-4 -1.8341852,0.822657 -1.8339844,1.835938 -2.002e-4,1.013281 0.8207042,1.835059 1.8339844,1.835937 1.014043,2e-4 1.8361375,-0.821894 1.8359375,-1.835937 C 6.59981,20.374629 5.7777153,19.552534 4.7636719,19.552734 Z m 6.1660161,1.837891 c -1.9943654,2.8e-4 -3.6110481,1.616963 -3.6113286,3.611328 -7.982e-4,1.995128 1.6162004,3.613001 3.6113286,3.613281 1.995128,-2.8e-4 3.612126,-1.618153 3.611328,-3.613281 -2.8e-4,-1.994365 -1.616963,-3.611048 -3.611328,-3.611328 z M 7.0527344,33.378906 c -1.0140434,-2e-4 -1.8361381,0.821895 -1.8359375,1.835938 8.782e-4,1.01328 0.8226569,1.834184 1.8359375,1.833984 0.4019363,-0.0012 0.7923614,-0.134336 1.1113281,-0.378906 0.3189667,0.24457 0.7093918,0.377685 1.1113281,0.378906 0.4550484,-8.43e-4 0.8935624,-0.17068 1.2304684,-0.476562 0.337405,0.306334 0.7767,0.476204 1.232422,0.476562 1.013281,2.01e-4 1.83506,-0.820704 1.835938,-1.833984 2.01e-4,-1.014044 -0.821894,-1.836139 -1.835938,-1.835938 -0.454789,3.08e-4 -0.893271,0.169437 -1.230469,0.47461 -0.337697,-0.305625 -0.7769589,-0.474786 -1.2324214,-0.47461 -0.4010414,0.0011 -0.7906916,0.133486 -1.109375,0.376953 -0.3197468,-0.244277 -0.710902,-0.37672 -1.1132812,-0.376953 z M 33.300781,5.8789062 c 0.520566,2.939e-4 0.942192,0.4227942 0.941407,0.9433594 -2.94e-4,0.5198026 -0.421604,0.9411123 -0.941407,0.9414063 -0.519802,-2.945e-4 -0.941112,-0.421604 -0.941406,-0.9414063 -7.85e-4,-0.5205648 0.420841,-0.943065 0.941406,-0.9433594 z M 31.580078,9.546875 c 1.014043,-2.006e-4 1.836138,0.821894 1.835938,1.835937 2.01e-4,1.014044 -0.821894,1.836139 -1.835938,1.835938 -1.014043,2e-4 -1.836138,-0.821895 -1.835937,-1.835938 -2e-4,-1.014043 0.821894,-1.836137 1.835937,-1.835937 z m -2.472656,4.958984 c 1.995128,2.8e-4 3.612127,1.618154 3.611328,3.613282 -2.8e-4,1.994365 -1.616963,3.611048 -3.611328,3.611328 -1.995128,7.98e-4 -3.613001,-1.6162 -3.613281,-3.611328 -7.99e-4,-1.995891 1.61739,-3.614081 3.613281,-3.613282 z m 7.005859,1.63086 c 1.10457,0 2,0.89543 2,2 0,1.10457 -0.89543,2 -2,2 -1.104569,0 -2,-0.895431 -2,-2 0,-1.104569 0.895431,-2 2,-2 z m 10.587891,2.492187 c 0.519802,2.94e-4 0.941112,0.421604 0.941406,0.941406 7.85e-4,0.520565 -0.42084,0.943066 -0.941406,0.94336 -0.521329,7.86e-4 -0.944146,-0.422031 -0.94336,-0.94336 2.95e-4,-0.520565 0.422795,-0.942191 0.94336,-0.941406 z m -3.464844,0.923828 c 1.013281,8.78e-4 1.834185,0.822657 1.833984,1.835938 2.01e-4,1.013281 -0.820704,1.835059 -1.833984,1.835937 -1.014043,2e-4 -1.836137,-0.821894 -1.835937,-1.835937 -2.01e-4,-1.014043 0.821894,-1.836138 1.835937,-1.835938 z m -6.166016,1.837891 c 1.994365,2.8e-4 3.611048,1.616963 3.611329,3.611328 7.98e-4,1.995128 -1.616201,3.613001 -3.611329,3.613281 -1.995128,-2.8e-4 -3.612126,-1.618153 -3.611328,-3.613281 2.8e-4,-1.994365 1.616963,-3.611048 3.611328,-3.611328 z m 3.876954,11.988281 c 1.014043,-2e-4 1.836138,0.821895 1.835937,1.835938 -8.78e-4,1.01328 -0.822657,1.834184 -1.835937,1.833984 -0.401937,-0.0012 -0.792362,-0.134336 -1.111329,-0.378906 -0.318966,0.24457 -0.709391,0.377685 -1.111328,0.378906 -0.455048,-8.43e-4 -0.893562,-0.17068 -1.230468,-0.476562 -0.337405,0.306334 -0.7767,0.476204 -1.232422,0.476562 -1.013281,2.01e-4 -1.83506,-0.820704 -1.835938,-1.833984 -2.01e-4,-1.014044 0.821894,-1.836139 1.835938,-1.835938 0.454789,3.08e-4 0.893271,0.169437 1.230469,0.47461 0.337697,-0.305625 0.776959,-0.474786 1.232421,-0.47461 0.401042,0.0011 0.790692,0.133486 1.109375,0.376953 0.319747,-0.244277 0.710902,-0.37672 1.113282,-0.376953 z"
       inkscape:path-effect="#path-effect9706"
       inkscape:original-d="m 14.699219,5.8789062 a 0.94193983,0.94193983 0 0 0 -0.941407,0.9433594 0.94193983,0.94193983 0 0 0 0.941407,0.9414063 0.94193983,0.94193983 0 0 0 0.941406,-0.9414063 0.94193983,0.94193983 0 0 0 -0.941406,-0.9433594 z m 1.720703,3.6679688 a 1.835575,1.835575 0 0 0 -1.835938,1.835937 1.835575,1.835575 0 0 0 1.835938,1.835938 1.835575,1.835575 0 0 0 1.835937,-1.835938 1.835575,1.835575 0 0 0 -1.835937,-1.835937 z m 2.472656,4.958984 a 3.611836,3.611836 0 0 0 -3.611328,3.613282 3.611836,3.611836 0 0 0 3.611328,3.611328 3.611836,3.611836 0 0 0 3.613281,-3.611328 3.611836,3.611836 0 0 0 -3.613281,-3.613282 z m -7.005859,1.63086 a 2,2 0 0 0 -2.0000002,2 2,2 0 0 0 2.0000002,2 2,2 0 0 0 2,-2 2,2 0 0 0 -2,-2 z M 1.2988281,18.628906 a 0.94193983,0.94193983 0 0 0 -0.94140622,0.941406 0.94193983,0.94193983 0 0 0 0.94140622,0.94336 0.94193983,0.94193983 0 0 0 0.9433594,-0.94336 0.94193983,0.94193983 0 0 0 -0.9433594,-0.941406 z m 3.4648438,0.923828 a 1.835575,1.835575 0 0 0 -1.8339844,1.835938 1.835575,1.835575 0 0 0 1.8339844,1.835937 1.835575,1.835575 0 0 0 1.8359375,-1.835937 1.835575,1.835575 0 0 0 -1.8359375,-1.835938 z m 6.1660161,1.837891 a 3.611836,3.611836 0 0 0 -3.6113286,3.611328 3.611836,3.611836 0 0 0 3.6113286,3.613281 3.611836,3.611836 0 0 0 3.611328,-3.613281 3.611836,3.611836 0 0 0 -3.611328,-3.611328 z M 7.0527344,33.378906 a 1.835575,1.835575 0 0 0 -1.8359375,1.835938 1.835575,1.835575 0 0 0 1.8359375,1.833984 1.835575,1.835575 0 0 0 1.1113281,-0.378906 1.835575,1.835575 0 0 0 1.1113281,0.378906 1.835575,1.835575 0 0 0 1.2304684,-0.476562 1.835575,1.835575 0 0 0 1.232422,0.476562 1.835575,1.835575 0 0 0 1.835938,-1.833984 1.835575,1.835575 0 0 0 -1.835938,-1.835938 1.835575,1.835575 0 0 0 -1.230469,0.47461 1.835575,1.835575 0 0 0 -1.2324214,-0.47461 1.835575,1.835575 0 0 0 -1.109375,0.376953 1.835575,1.835575 0 0 0 -1.1132812,-0.376953 z"
       class="UnoptimicedTransforms" />
    <circle
       style="fill:#206a5d;fill-opacity:1;stroke:#fefefe;stroke-width:0.4;stroke-linecap:butt;stroke-miterlimit:3;stroke-dasharray:none;stroke-opacity:0.996479"
       id="path9642-7"
       cx="24"
       cy="13.047812"
       r="2" />
  </g>
</svg>
